<?xml version="1.0" standalone="no"?>
<!DOCTYPE svg PUBLIC "-//W3C//DTD SVG 20010904//EN"
 "http://www.w3.org/TR/2001/REC-SVG-20010904/DTD/svg10.dtd">
<svg version="1.0" xmlns="http://www.w3.org/2000/svg"
 width="500.000000pt" height="500.000000pt" viewBox="0 0 500.000000 500.000000"
 preserveAspectRatio="xMidYMid meet">
<metadata>
Created by potrace 1.16, written by Peter Selinger 2001-2019
</metadata>
<g transform="translate(0.000000,500.000000) scale(0.100000,-0.100000)"
fill="#000000" stroke="none">
<path d="M2214 3876 l-604 -605 0 -275 0 -276 538 0 538 0 229 -203 230 -204
5 201 5 201 113 3 112 3 0 879 0 880 -281 0 -280 0 -605 -604z"/>
<path d="M1016 2006 c-94 -35 -140 -103 -140 -206 1 -112 55 -182 164 -210 51
-14 134 -7 186 15 l34 14 0 105 0 106 -80 0 -80 0 0 -35 c0 -32 2 -35 31 -35
29 0 30 -2 27 -37 -3 -37 -4 -38 -45 -41 -56 -4 -101 20 -119 65 -21 49 -10
103 27 139 37 35 123 45 183 20 21 -9 40 -16 43 -16 2 0 3 21 1 47 -3 42 -7
50 -32 62 -44 21 -153 24 -200 7z"/>
<path d="M1300 1866 c0 -158 6 -185 52 -233 66 -68 211 -68 277 1 43 45 51 80
51 238 l0 138 -55 0 -55 0 0 -144 c0 -144 0 -145 -26 -165 -39 -30 -102 -24
-126 13 -4 6 -8 75 -8 154 l0 142 -55 0 -55 0 0 -144z"/>
<path d="M1730 1801 l0 -211 55 0 55 0 0 65 0 65 30 0 c27 0 33 -7 62 -65 l32
-65 53 0 c29 0 53 3 53 8 -1 4 -16 36 -34 71 l-33 65 32 31 c63 59 54 166 -18
219 -25 18 -46 21 -158 24 l-129 4 0 -211z"/>
<path d="M2120 1860 c0 -130 3 -156 20 -189 68 -135 309 -111 349 34 6 22 11
100 11 173 l0 132 -55 0 -55 0 0 -140 c0 -138 -1 -141 -26 -167 -22 -21 -32
-25 -66 -20 -69 9 -73 19 -76 182 l-3 145 -50 0 -49 0 0 -150z"/>
<path d="M2550 1800 l0 -210 50 0 50 0 0 93 1 92 32 -36 c17 -19 55 -61 82
-93 l50 -58 59 4 60 3 -87 102 c-48 57 -87 106 -87 109 0 4 30 43 68 88 37 44
73 89 81 99 12 16 9 17 -50 16 l-64 0 -70 -86 -70 -86 -3 87 -3 86 -49 0 -50
0 0 -210z"/>
<path d="M2960 1862 c0 -136 2 -153 23 -192 49 -93 203 -118 292 -48 52 41 65
87 65 246 l0 142 -55 0 -55 0 0 -144 c0 -144 0 -145 -26 -165 -47 -37 -115
-21 -134 32 -5 16 -10 86 -10 153 l0 124 -50 0 -50 0 0 -148z"/>
<path d="M3390 1800 l0 -210 145 0 145 0 0 45 0 45 -90 0 -90 0 0 165 0 165
-55 0 -55 0 0 -210z"/>
<path d="M3777 1818 c-42 -106 -79 -201 -83 -210 -5 -16 1 -18 48 -18 l54 0
15 43 16 42 77 3 76 3 20 -46 c19 -45 19 -45 70 -45 27 0 50 3 50 8 0 4 -36
98 -81 210 l-81 202 -52 0 -52 0 -77 -192z"/>
</g>
</svg>
