<?xml version="1.0" standalone="no"?>
<!DOCTYPE svg PUBLIC "-//W3C//DTD SVG 20010904//EN"
 "http://www.w3.org/TR/2001/REC-SVG-20010904/DTD/svg10.dtd">
<svg version="1.0" xmlns="http://www.w3.org/2000/svg"
 width="500.000000pt" height="500.000000pt" viewBox="0 0 500.000000 500.000000"
 preserveAspectRatio="xMidYMid meet">

<g transform="translate(0.000000,500.000000) scale(0.100000,-0.100000)"
fill="#000000" stroke="none">
<path d="M2214 3876 l-604 -605 0 -275 0 -276 538 0 538 0 229 -203 230 -204
5 201 5 201 113 3 112 3 0 879 0 880 -281 0 -280 0 -605 -604z"/>
<path d="M1016 2006 c-94 -35 -140 -103 -140 -206 1 -112 55 -182 164 -210 51
-14 134 -7 186 15 l34 14 0 105 0 106 -80 0 -80 0 0 -35 c0 -32 2 -35 31 -35
29 0 30 -2 27 -37 -3 -37 -4 -38 -45 -41 -56 -4 -101 20 -119 65 -21 49 -10
103 27 139 37 35 123 45 183 20 21 -9 40 -16 43 -16 2 0 3 21 1 47 -3 42 -7
50 -32 62 -44 21 -153 24 -200 7z"/>
<path d="M1300 1866 c0 -158 6 -185 52 -233 66 -68 211 -68 277 1 43 45 51 80
51 238 l0 138 -55 0 -55 0 0 -144 c0 -144 0 -145 -26 -165 -39 -30 -102 -24
-126 13 -4 6 -8 75 -8 154 l0 142 -55 0 -55 0 0 -144z"/>
<path d="M1730 1801 l0 -211 55 0 55 0 0 65 0 65 30 0 c27 0 33 -7 62 -65 l32
-65 53 0 c29 0 53 3 53 8 -1 4 -16 36 -34 71 l-33 65 32 31 c63 59 54 166 -18
219 -25 18 -46 21 -158 24 l-129 4 0 -211z m224 103 c23 -22 20 -60 -6 -78
-12 -9 -42 -16 -65 -16 l-43 0 0 55 0 55 49 0 c32 0 55 -6 65 -16z"/>
<path d="M2120 1860 c0 -130 3 -156 20 -189 68 -135 309 -111 349 34 6 22 11
100 11 173 l0 132 -55 0 -55 0 0 -140 c0 -138 -1 -141 -26 -167 -22 -21 -32
-25 -66 -20 -69 9 -73 19 -76 182 l-3 145 -50 0 -49 0 0 -150z"/>
<path d="M2550 1800 l0 -210 50 0 50 0 0 93 1 92 32 -36 c17 -19 55 -61 82
-93 l50 -58 59 4 60 3 -87 102 c-48 57 -87 106 -87 109 0 4 30 43 68 88 37 44
73 89 81 99 12 16 9 17 -50 16 l-64 0 -70 -86 -70 -86 -3 87 -3 86 -49 0 -50
0 0 -210z"/>
<path d="M2960 1862 c0 -136 2 -153 23 -192 49 -93 203 -118 292 -48 52 41 65
87 65 246 l0 142 -55 0 -55 0 0 -144 c0 -144 0 -145 -26 -165 -47 -37 -115
-21 -134 32 -5 16 -10 86 -10 153 l0 124 -50 0 -50 0 0 -148z"/>
<path d="M3390 1800 l0 -210 145 0 145 0 0 45 0 45 -90 0 -90 0 0 165 0 165
-55 0 -55 0 0 -210z"/>
<path d="M3777 1818 c-42 -106 -79 -201 -83 -210 -5 -16 1 -18 48 -18 l54 0
15 43 16 42 77 3 76 3 20 -46 c19 -45 19 -45 70 -45 27 0 50 3 50 8 0 4 -36
98 -81 210 l-81 202 -52 0 -52 0 -77 -192z m159 1 l21 -59 -48 0 c-27 0 -49 3
-49 6 0 18 44 124 49 119 3 -3 15 -33 27 -66z"/>
<path d="M1696 1081 c-26 -28 -18 -82 15 -100 26 -14 79 -9 79 8 0 5 -9 7 -20
4 -52 -14 -92 26 -69 69 7 13 21 18 52 18 31 0 38 3 27 10 -24 16 -66 11 -84
-9z"/>
<path d="M1820 1034 c0 -41 4 -63 10 -59 6 3 10 15 10 26 0 27 25 24 38 -6 6
-14 16 -25 22 -25 6 0 4 12 -4 29 -14 26 -14 30 -1 35 18 7 20 37 3 54 -7 7
-27 12 -45 12 l-33 0 0 -66z m68 29 c-2 -10 -13 -19 -26 -21 -17 -3 -22 2 -22
17 0 16 6 21 26 21 19 0 25 -5 22 -17z"/>
<path d="M1940 1035 l0 -65 40 0 c22 0 40 5 40 10 0 6 -13 10 -30 10 -41 0
-43 37 -2 43 l27 4 -27 2 c-21 1 -28 6 -28 21 0 16 7 20 30 20 17 0 30 5 30
10 0 6 -18 10 -40 10 l-40 0 0 -65z"/>
<path d="M2081 1058 c-28 -67 -34 -88 -22 -88 6 0 11 7 11 15 0 22 66 20 74
-1 4 -9 9 -14 12 -11 8 7 -38 127 -49 127 -4 0 -16 -19 -26 -42z m42 -18 c4
-15 0 -20 -14 -20 -20 0 -23 8 -13 34 7 20 20 13 27 -14z"/>
<path d="M2190 1090 c0 -5 9 -10 20 -10 18 0 20 -7 20 -56 0 -34 4 -53 10 -49
6 3 10 28 10 56 0 37 4 49 15 49 8 0 15 5 15 10 0 6 -20 10 -45 10 -25 0 -45
-4 -45 -10z"/>
<path d="M2310 1035 c0 -37 4 -65 10 -65 6 0 10 28 10 65 0 37 -4 65 -10 65
-6 0 -10 -28 -10 -65z"/>
<path d="M2381 1048 c12 -29 23 -59 26 -65 10 -24 20 -13 45 52 30 74 18 89
-14 18 l-20 -48 -20 48 c-28 65 -43 60 -17 -5z"/>
<path d="M2510 1035 l0 -65 40 0 c22 0 40 5 40 10 0 6 -13 10 -30 10 -23 0
-30 5 -30 19 0 12 8 21 23 24 l22 4 -22 2 c-16 1 -23 7 -23 21 0 16 7 20 30
20 17 0 30 5 30 10 0 6 -18 10 -40 10 l-40 0 0 -65z"/>
<path d="M2710 1080 c-46 -46 0 -121 67 -108 12 2 19 14 21 36 3 27 0 32 -19
32 -22 0 -22 -1 -4 -13 22 -17 12 -37 -19 -37 -28 0 -46 18 -46 45 0 30 19 45
58 45 19 0 31 4 27 10 -11 17 -64 11 -85 -10z"/>
<path d="M2830 1041 c0 -33 5 -63 10 -66 6 -4 10 5 10 19 0 34 24 34 46 1 20
-30 31 -26 14 4 -9 17 -8 25 5 37 18 18 18 20 5 45 -8 14 -21 19 -50 19 l-40
0 0 -59z m75 19 c0 -9 -11 -16 -27 -18 -23 -3 -28 1 -28 18 0 17 5 21 28 18
16 -2 27 -9 27 -18z"/>
<path d="M2977 1088 c-27 -22 -31 -61 -7 -91 44 -55 116 -19 111 55 -3 41 -67
63 -104 36z m84 -29 c8 -16 8 -28 0 -46 -9 -20 -17 -24 -43 -21 -39 4 -61 45
-38 72 19 24 67 20 81 -5z"/>
<path d="M3110 1057 c0 -51 22 -87 55 -87 38 0 55 26 55 81 0 66 -18 63 -22
-3 -3 -47 -6 -53 -27 -56 -30 -5 -41 12 -41 66 0 23 -4 42 -10 42 -5 0 -10
-19 -10 -43z"/>
<path d="M3250 1036 c0 -37 4 -66 10 -66 6 0 10 11 10 24 0 19 6 25 26 28 63
7 55 71 -10 76 l-36 3 0 -65z m70 24 c0 -15 -7 -20 -25 -20 -18 0 -25 5 -25
20 0 15 7 20 25 20 18 0 25 -5 25 -20z"/>
</g>
</svg>
